<?xml version="1.0" encoding="UTF-8" standalone="no"?>
<svg
   xmlns:dc="http://purl.org/dc/elements/1.1/"
   xmlns:cc="http://creativecommons.org/ns#"
   xmlns:rdf="http://www.w3.org/1999/02/22-rdf-syntax-ns#"
   xmlns:svg="http://www.w3.org/2000/svg"
   xmlns="http://www.w3.org/2000/svg"
   xmlns:sodipodi="http://sodipodi.sourceforge.net/DTD/sodipodi-0.dtd"
   xmlns:inkscape="http://www.inkscape.org/namespaces/inkscape"
   width="78.657"
   height="18"
   version="1.1"
   viewBox="0 0 20.811332 4.7624926"
   id="svg16"
   sodipodi:docname="zorza_text.svg"
   inkscape:version="0.92.2 (5c3e80d, 2017-08-06)">
  <defs
     id="defs20" />
  <sodipodi:namedview
     pagecolor="#ffffff"
     bordercolor="#666666"
     borderopacity="1"
     objecttolerance="10"
     gridtolerance="10"
     guidetolerance="10"
     inkscape:pageopacity="0"
     inkscape:pageshadow="2"
     inkscape:window-width="1920"
     inkscape:window-height="1015"
     id="namedview18"
     showgrid="false"
     inkscape:zoom="3.661467"
     inkscape:cx="39.328499"
     inkscape:cy="9.0000137"
     inkscape:window-x="0"
     inkscape:window-y="0"
     inkscape:window-maximized="1"
     inkscape:current-layer="svg16" />
  <metadata
     id="metadata2">
    <!--
Raleway font is licensed with SIL Open Font License
-->
    <rdf:RDF>
      <cc:Work
         rdf:about="">
        <dc:format>image/svg+xml</dc:format>
        <dc:type
           rdf:resource="http://purl.org/dc/dcmitype/StillImage" />
        <dc:title></dc:title>
      </cc:Work>
    </rdf:RDF>
  </metadata>
  <g
     transform="translate(-2.2079 -.4224)"
     id="g14"
     fill="#fff">
    <path
       d="m2.2079 4.7785v0.31809h3.7287v-0.3446h-3.2074l3.2251-3.9319v-0.31809h-3.6934v0.3446h3.1809z"
       id="path4" />
    <path
       d="m6.5243 2.8081c0 1.2812 0.95427 2.3768 2.2443 2.3768 1.2812 0 2.2443-1.0956 2.2443-2.3768 0-1.29-0.98077-2.3857-2.2443-2.3857-1.2724 0-2.2443 1.0956-2.2443 2.3857zm2.2355 1.9792c-0.98961 0-1.7937-0.87474-1.7937-1.9615 0-1.0956 0.82173-2.0057 1.8025-2.0057 0.98077 0 1.7937 0.90125 1.7937 1.9792 0 1.0956-0.81289 1.9881-1.8025 1.9881z"
       id="path6" />
    <path
       d="m14.245 0.89954v-0.41528c-0.06185 0-0.15904 0-0.27391 0.008836-0.592 0.061851-1.1575 0.4948-1.4756 1.1398v-1.131h-0.42412v4.5946h0.44179v-2.8716c0.2474-0.80406 0.91009-1.2989 1.7318-1.3254z"
       id="path8" />
    <path
       d="m14.685 4.7785v0.31809h3.7287v-0.3446h-3.2074l3.2251-3.9319v-0.31809h-3.6934v0.3446h3.1809z"
       id="path10" />
    <path
       d="m19.043 3.7712c0 0.79522 0.65385 1.4137 1.5286 1.4137 0.72454 0 1.4402-0.30925 1.8644-0.8394v0.36227c0.0088 0.18555 0.13254 0.3711 0.36227 0.39761 0.04418 0.00884 0.10603 0 0.2209-0.00884v-0.36226c-0.13254-0.0088359-0.19439-0.079522-0.19439-0.22089v-2.2796c0-1.1221-0.68919-1.8113-1.776-1.8113-0.55666 0-1.1133 0.21206-1.7053 0.60967l0.18555 0.31809c0.51248-0.35343 1.0073-0.54782 1.4756-0.54782 0.84824 0 1.3784 0.54782 1.3784 1.3961v0.43295c-0.39761-0.14137-0.93659-0.22973-1.4137-0.22973-1.1398 0-1.9262 0.55666-1.9262 1.3695zm3.1632 0.37994c-0.29158 0.40645-0.89242 0.68036-1.5463 0.68036-0.7157 0-1.1928-0.50364-1.1928-1.0868 0-0.61851 0.6185-1.0161 1.5463-1.0161 0.47713 0 0.94543 0.079522 1.3695 0.2474v0.75988c0 0.11487-0.06185 0.27391-0.17672 0.41528z"
       id="path12" />
  </g>
</svg>
